<svg width="30" height="31" fill="none" xmlns="http://www.w3.org/2000/svg"><path d="M30 15.13c0 7.92-6.593 14.338-14.727 14.338-2.583 0-5.009-.647-7.12-1.784L0 30.226l2.658-7.692A13.987 13.987 0 01.545 15.13C.545 7.212 7.139.792 15.273.792 23.408.792 30 7.212 30 15.13zM15.273 3.076C8.445 3.076 2.89 8.484 2.89 15.13c0 2.638.876 5.081 2.358 7.068l-1.547 4.477 4.759-1.484a12.545 12.545 0 006.812 1.994c6.827 0 12.382-5.407 12.382-12.054S22.1 3.076 15.273 3.076zm7.437 15.357c-.091-.147-.332-.235-.692-.41-.362-.176-2.137-1.027-2.467-1.143-.331-.118-.572-.177-.813.175-.24.352-.932 1.143-1.143 1.378-.21.235-.421.264-.782.088-.361-.175-1.524-.547-2.903-1.744-1.073-.931-1.798-2.082-2.008-2.434-.21-.351-.022-.541.158-.716.163-.158.361-.41.542-.616.18-.205.24-.351.36-.586.121-.234.061-.44-.03-.616-.09-.175-.812-1.905-1.113-2.608-.3-.704-.601-.587-.812-.587-.21 0-.451-.029-.692-.029-.24 0-.632.088-.963.44-.33.351-1.263 1.202-1.263 2.93 0 1.73 1.293 3.401 1.474 3.636.18.234 2.497 3.898 6.167 5.305 3.67 1.406 3.67.937 4.332.878.661-.058 2.135-.85 2.437-1.67.3-.821.3-1.525.21-1.671z" fill="#3CA255"/></svg>