<svg width="17" height="16" fill="none" xmlns="http://www.w3.org/2000/svg"><path d="M5.75 8c0-1.38 1.176-2.5 2.625-2.5 1.45 0 2.626 1.12 2.626 2.5s-1.176 2.5-2.626 2.5S5.751 9.38 5.751 8zM4.332 8c0 2.127 1.81 3.851 4.044 3.851 2.234 0 4.044-1.724 4.044-3.851s-1.81-3.851-4.044-3.851C6.142 4.149 4.331 5.873 4.331 8zm7.303-4.004a.87.87 0 00.16.5.936.936 0 00.423.332.989.989 0 00.546.051.961.961 0 00.484-.246.887.887 0 00.26-.46.86.86 0 00-.054-.52.91.91 0 00-.348-.405.979.979 0 00-.525-.152.97.97 0 00-.669.264.88.88 0 00-.277.636zm-6.44 10.109c-.768-.034-1.185-.155-1.463-.258a2.463 2.463 0 01-.906-.561 2.306 2.306 0 01-.589-.862c-.108-.264-.236-.662-.27-1.393-.039-.79-.046-1.028-.046-3.03 0-2.004.008-2.24.045-3.032.035-.731.164-1.128.271-1.393.143-.35.314-.6.59-.862.275-.263.537-.426.905-.561.277-.103.695-.225 1.463-.258.83-.037 1.08-.044 3.181-.044 2.102 0 2.352.008 3.183.044.768.033 1.184.156 1.462.258.368.135.63.298.906.56.276.263.446.513.59.863.107.264.235.662.27 1.393.038.791.046 1.028.046 3.031s-.008 2.24-.046 3.031c-.035.731-.163 1.129-.27 1.393-.144.35-.314.6-.59.862a2.462 2.462 0 01-.906.56c-.277.104-.694.226-1.462.259-.83.036-1.08.043-3.183.043-2.103 0-2.351-.007-3.181-.043zM5.128.545c-.838.037-1.41.163-1.911.349a3.888 3.888 0 00-1.395.865 3.652 3.652 0 00-.909 1.328C.72 3.564.586 4.11.548 4.907.508 5.708.5 5.964.5 8s.009 2.292.048 3.092c.038.799.17 1.344.365 1.82.202.494.47.913.909 1.33a3.9 3.9 0 001.395.864c.501.186 1.073.312 1.911.349.84.036 1.109.045 3.247.045 2.139 0 2.408-.008 3.247-.045s1.411-.163 1.912-.349a3.898 3.898 0 001.395-.865 3.66 3.66 0 00.908-1.328c.195-.477.328-1.023.366-1.82.038-.801.047-1.056.047-3.093s-.009-2.292-.047-3.092c-.038-.799-.171-1.344-.366-1.82a3.675 3.675 0 00-.908-1.33 3.878 3.878 0 00-1.395-.864c-.5-.186-1.074-.313-1.911-.349C10.783.51 10.515.5 8.376.5S5.969.508 5.128.545z" fill="#222"/></svg>