<svg width="18" height="11" fill="none" xmlns="http://www.w3.org/2000/svg"><path fill-rule="evenodd" clip-rule="evenodd" d="M16.871 1.16c.115-.38 0-.66-.545-.66H14.52c-.459 0-.67.242-.785.508 0 0-.918 2.226-2.218 3.672-.421.419-.612.552-.842.552-.115 0-.28-.133-.28-.514V1.16c0-.457-.134-.66-.516-.66H7.042c-.287 0-.46.212-.46.413 0 .433.65.533.718 1.75v2.645c0 .58-.105.685-.335.685-.612 0-2.1-2.236-2.983-4.795C3.809.701 3.635.5 3.174.5H1.369C.853.5.75.742.75 1.008c0 .476.612 2.835 2.85 5.956 1.491 2.13 3.593 3.286 5.505 3.286 1.148 0 1.29-.257 1.29-.699v-1.61c0-.513.108-.616.471-.616.268 0 .727.133 1.798 1.16 1.224 1.218 1.426 1.765 2.114 1.765h1.805c.516 0 .774-.257.625-.763-.162-.505-.747-1.237-1.522-2.105-.421-.494-1.052-1.027-1.243-1.294-.268-.342-.192-.494 0-.799 0 0 2.199-3.082 2.428-4.129z" fill="#222"/></svg>