<svg width="15" height="15" fill="none" xmlns="http://www.w3.org/2000/svg"><path d="M12.442 2.33C11.122.982 9.297.25 7.433.25 3.473.25.29 3.447.328 7.336c0 1.233.35 2.427.932 3.505L.25 14.5l3.766-.963a6.978 6.978 0 003.378.847c3.922 0 7.106-3.196 7.106-7.086a6.96 6.96 0 00-2.058-4.968zM7.433 13.19a5.805 5.805 0 01-2.99-.808l-.233-.116-2.252.578.583-2.195-.155-.231c-1.709-2.735-.893-6.355 1.902-8.05 2.796-1.694 6.407-.886 8.115 1.887 1.709 2.773.893 6.355-1.902 8.05a5.695 5.695 0 01-3.068.886zm3.417-4.274l-.427-.193s-.621-.27-1.01-.462c-.038 0-.077-.039-.116-.039a.565.565 0 00-.272.077s-.039.039-.582.655a.214.214 0 01-.194.116h-.04a.295.295 0 01-.154-.077l-.195-.077c-.427-.193-.815-.424-1.126-.732-.077-.077-.194-.154-.271-.231-.272-.27-.544-.578-.738-.925l-.039-.077c-.039-.038-.039-.077-.078-.154 0-.077 0-.154.04-.192 0 0 .154-.193.27-.308.079-.077.117-.193.195-.27.078-.116.117-.27.078-.385-.04-.193-.505-1.233-.622-1.464a.45.45 0 00-.271-.192H4.87c-.078 0-.156.038-.233.038l-.04.039c-.077.038-.155.115-.232.154-.078.077-.117.154-.194.231-.272.347-.427.77-.427 1.194 0 .308.077.616.194.886l.039.115a6.401 6.401 0 001.436 1.964l.155.154c.117.116.233.193.311.309a6.957 6.957 0 002.796 1.463c.116.039.272.039.388.077h.388c.194 0 .427-.077.583-.154.116-.077.194-.077.271-.154l.078-.077c.078-.077.155-.115.233-.193.078-.077.155-.154.194-.23.078-.155.117-.347.156-.54v-.27s-.04-.038-.117-.076z" fill="#222"/></svg>