<svg width="24" height="24" fill="none" xmlns="http://www.w3.org/2000/svg"><path d="M17.857 4.8V2.4H8.333v2.4h9.524zM7.143 19.2c-.632 0-1.237.253-1.684.703a2.41 2.41 0 000 3.394 2.372 2.372 0 003.367 0 2.41 2.41 0 000-3.394 2.372 2.372 0 00-1.683-.703zm11.905 0c-.632 0-1.237.253-1.684.703a2.41 2.41 0 000 3.394 2.372 2.372 0 003.367 0 2.41 2.41 0 000-3.394 2.372 2.372 0 00-1.683-.703zM7.345 15.3l.036-.144L8.452 13.2h8.87c.892 0 1.678-.492 2.083-1.236L24 3.552 21.929 2.4h-.012l-1.31 2.4-3.286 6H8.964l-.154-.324L6.143 4.8 5.012 2.4 3.892 0H0v2.4h2.381l4.286 9.108-1.607 2.94a2.34 2.34 0 00-.298 1.152c0 .636.25 1.247.697 1.697.447.45 1.052.703 1.684.703h14.286v-2.4H7.643a.304.304 0 01-.298-.3z" fill="#222"/></svg>